<?xml version="1.0" encoding="UTF-8" standalone="no"?>
<!DOCTYPE svg PUBLIC "-//W3C//DTD SVG 1.1//EN"
 "http://www.w3.org/Graphics/SVG/1.1/DTD/svg11.dtd">
<!-- Generated by graphviz version 2.30.1 (20180828.1746)
 -->
<!-- Title: %3 Pages: 1 -->
<svg width="1693pt" height="260pt"
 viewBox="0.00 0.00 1693.00 260.00" xmlns="http://www.w3.org/2000/svg" xmlns:xlink="http://www.w3.org/1999/xlink">
<g id="graph0" class="graph" transform="scale(1 1) rotate(0) translate(4 256)">
<title>%3</title>
<polygon fill="white" stroke="white" points="-4,5 -4,-256 1690,-256 1690,5 -4,5"/>
<!-- [root] aws_instance.webserver (expand) -->
<g id="node1" class="node"><title>[root] aws_instance.webserver (expand)</title>
<polygon fill="none" stroke="black" points="673.25,-108 528.75,-108 528.75,-72 673.25,-72 673.25,-108"/>
<text text-anchor="middle" x="601" y="-86.3" font-family="Times,serif" font-size="14.00">aws_instance.webserver</text>
</g>
<!-- [root] provider[&quot;registry.terraform.io/hashicorp/aws&quot;] -->
<g id="node6" class="node"><title>[root] provider[&quot;registry.terraform.io/hashicorp/aws&quot;]</title>
<polygon fill="none" stroke="black" points="601,-36 350.984,-18 601,-3.55271e-15 851.016,-18 601,-36"/>
<text text-anchor="middle" x="601" y="-14.3" font-family="Times,serif" font-size="14.00">provider[&quot;registry.terraform.io/hashicorp/aws&quot;]</text>
</g>
<!-- [root] aws_instance.webserver (expand)&#45;&gt;[root] provider[&quot;registry.terraform.io/hashicorp/aws&quot;] -->
<g id="edge1" class="edge"><title>[root] aws_instance.webserver (expand)&#45;&gt;[root] provider[&quot;registry.terraform.io/hashicorp/aws&quot;]</title>
<path fill="none" stroke="black" d="M601,-71.6966C601,-63.9827 601,-54.7125 601,-46.1124"/>
<polygon fill="black" stroke="black" points="604.5,-46.1043 601,-36.1043 597.5,-46.1044 604.5,-46.1043"/>
</g>
<!-- [root] aws_security_group.SG_Web (expand) -->
<g id="node2" class="node"><title>[root] aws_security_group.SG_Web (expand)</title>
<polygon fill="none" stroke="black" points="868.25,-108 691.75,-108 691.75,-72 868.25,-72 868.25,-108"/>
<text text-anchor="middle" x="780" y="-86.3" font-family="Times,serif" font-size="14.00">aws_security_group.SG_Web</text>
</g>
<!-- [root] aws_security_group.SG_Web (expand)&#45;&gt;[root] provider[&quot;registry.terraform.io/hashicorp/aws&quot;] -->
<g id="edge2" class="edge"><title>[root] aws_security_group.SG_Web (expand)&#45;&gt;[root] provider[&quot;registry.terraform.io/hashicorp/aws&quot;]</title>
<path fill="none" stroke="black" d="M736.212,-71.8761C709.269,-61.34 674.773,-47.8496 647.367,-37.1323"/>
<polygon fill="black" stroke="black" points="648.581,-33.849 637.993,-33.4666 646.032,-40.3683 648.581,-33.849"/>
</g>
<!-- [root] var.port -->
<g id="node13" class="node"><title>[root] var.port</title>
<polygon fill="none" stroke="black" points="921,-36 869,-36 869,-0 927,-0 927,-30 921,-36"/>
<polyline fill="none" stroke="black" points="921,-36 921,-30 "/>
<polyline fill="none" stroke="black" points="927,-30 921,-30 "/>
<text text-anchor="middle" x="898" y="-14.3" font-family="Times,serif" font-size="14.00">var.port</text>
</g>
<!-- [root] aws_security_group.SG_Web (expand)&#45;&gt;[root] var.port -->
<g id="edge3" class="edge"><title>[root] aws_security_group.SG_Web (expand)&#45;&gt;[root] var.port</title>
<path fill="none" stroke="black" d="M808.866,-71.8761C824.295,-62.7236 843.481,-51.3417 860.097,-41.485"/>
<polygon fill="black" stroke="black" points="862.208,-44.302 869.023,-36.1898 858.637,-38.2816 862.208,-44.302"/>
</g>
<!-- [root] output.instance_id -->
<g id="node3" class="node"><title>[root] output.instance_id</title>
<polygon fill="none" stroke="black" points="110,-180 0,-180 0,-144 116,-144 116,-174 110,-180"/>
<polyline fill="none" stroke="black" points="110,-180 110,-174 "/>
<polyline fill="none" stroke="black" points="116,-174 110,-174 "/>
<text text-anchor="middle" x="58" y="-158.3" font-family="Times,serif" font-size="14.00">output.instance_id</text>
</g>
<!-- [root] output.instance_public_ip -->
<g id="node4" class="node"><title>[root] output.instance_public_ip</title>
<polygon fill="none" stroke="black" points="285.25,-180 134.75,-180 134.75,-144 291.25,-144 291.25,-174 285.25,-180"/>
<polyline fill="none" stroke="black" points="285.25,-180 285.25,-174 "/>
<polyline fill="none" stroke="black" points="291.25,-174 285.25,-174 "/>
<text text-anchor="middle" x="213" y="-158.3" font-family="Times,serif" font-size="14.00">output.instance_public_ip</text>
</g>
<!-- [root] output.security_group -->
<g id="node5" class="node"><title>[root] output.security_group</title>
<polygon fill="none" stroke="black" points="440,-180 310,-180 310,-144 446,-144 446,-174 440,-180"/>
<polyline fill="none" stroke="black" points="440,-180 440,-174 "/>
<polyline fill="none" stroke="black" points="446,-174 440,-174 "/>
<text text-anchor="middle" x="378" y="-158.3" font-family="Times,serif" font-size="14.00">output.security_group</text>
</g>
<!-- [root] var.Port -->
<g id="node7" class="node"><title>[root] var.Port</title>
<polygon fill="none" stroke="black" points="986.25,-180 933.75,-180 933.75,-144 992.25,-144 992.25,-174 986.25,-180"/>
<polyline fill="none" stroke="black" points="986.25,-180 986.25,-174 "/>
<polyline fill="none" stroke="black" points="992.25,-174 986.25,-174 "/>
<text text-anchor="middle" x="963" y="-158.3" font-family="Times,serif" font-size="14.00">var.Port</text>
</g>
<!-- [root] var.ami_id -->
<g id="node8" class="node"><title>[root] var.ami_id</title>
<polygon fill="none" stroke="black" points="1079,-180 1011,-180 1011,-144 1085,-144 1085,-174 1079,-180"/>
<polyline fill="none" stroke="black" points="1079,-180 1079,-174 "/>
<polyline fill="none" stroke="black" points="1085,-174 1079,-174 "/>
<text text-anchor="middle" x="1048" y="-158.3" font-family="Times,serif" font-size="14.00">var.ami_id</text>
</g>
<!-- [root] var.cidr_blocks -->
<g id="node9" class="node"><title>[root] var.cidr_blocks</title>
<polygon fill="none" stroke="black" points="1196.25,-180 1103.75,-180 1103.75,-144 1202.25,-144 1202.25,-174 1196.25,-180"/>
<polyline fill="none" stroke="black" points="1196.25,-180 1196.25,-174 "/>
<polyline fill="none" stroke="black" points="1202.25,-174 1196.25,-174 "/>
<text text-anchor="middle" x="1153" y="-158.3" font-family="Times,serif" font-size="14.00">var.cidr_blocks</text>
</g>
<!-- [root] var.instance_count -->
<g id="node10" class="node"><title>[root] var.instance_count</title>
<polygon fill="none" stroke="black" points="1331.25,-180 1220.75,-180 1220.75,-144 1337.25,-144 1337.25,-174 1331.25,-180"/>
<polyline fill="none" stroke="black" points="1331.25,-180 1331.25,-174 "/>
<polyline fill="none" stroke="black" points="1337.25,-174 1331.25,-174 "/>
<text text-anchor="middle" x="1279" y="-158.3" font-family="Times,serif" font-size="14.00">var.instance_count</text>
</g>
<!-- [root] var.instance_tags -->
<g id="node11" class="node"><title>[root] var.instance_tags</title>
<polygon fill="none" stroke="black" points="1458.25,-180 1355.75,-180 1355.75,-144 1464.25,-144 1464.25,-174 1458.25,-180"/>
<polyline fill="none" stroke="black" points="1458.25,-180 1458.25,-174 "/>
<polyline fill="none" stroke="black" points="1464.25,-174 1458.25,-174 "/>
<text text-anchor="middle" x="1410" y="-158.3" font-family="Times,serif" font-size="14.00">var.instance_tags</text>
</g>
<!-- [root] var.instance_type -->
<g id="node12" class="node"><title>[root] var.instance_type</title>
<polygon fill="none" stroke="black" points="1587,-180 1483,-180 1483,-144 1593,-144 1593,-174 1587,-180"/>
<polyline fill="none" stroke="black" points="1587,-180 1587,-174 "/>
<polyline fill="none" stroke="black" points="1593,-174 1587,-174 "/>
<text text-anchor="middle" x="1538" y="-158.3" font-family="Times,serif" font-size="14.00">var.instance_type</text>
</g>
<!-- [root] var.vpc_id -->
<g id="node14" class="node"><title>[root] var.vpc_id</title>
<polygon fill="none" stroke="black" points="1678.25,-180 1611.75,-180 1611.75,-144 1684.25,-144 1684.25,-174 1678.25,-180"/>
<polyline fill="none" stroke="black" points="1678.25,-180 1678.25,-174 "/>
<polyline fill="none" stroke="black" points="1684.25,-174 1678.25,-174 "/>
<text text-anchor="middle" x="1648" y="-158.3" font-family="Times,serif" font-size="14.00">var.vpc_id</text>
</g>
<!-- [root] provider[&quot;registry.terraform.io/hashicorp/aws&quot;] (close) -->
<g id="node15" class="node"><title>[root] provider[&quot;registry.terraform.io/hashicorp/aws&quot;] (close)</title>
<ellipse fill="none" stroke="black" cx="690" cy="-162" rx="225.295" ry="18"/>
<text text-anchor="middle" x="690" y="-158.3" font-family="Times,serif" font-size="14.00">[root] provider[&quot;registry.terraform.io/hashicorp/aws&quot;] (close)</text>
</g>
<!-- [root] provider[&quot;registry.terraform.io/hashicorp/aws&quot;] (close)&#45;&gt;[root] aws_instance.webserver (expand) -->
<g id="edge4" class="edge"><title>[root] provider[&quot;registry.terraform.io/hashicorp/aws&quot;] (close)&#45;&gt;[root] aws_instance.webserver (expand)</title>
<path fill="none" stroke="black" d="M668.456,-144.055C657.17,-135.179 643.171,-124.169 630.857,-114.483"/>
<polygon fill="black" stroke="black" points="632.678,-111.463 622.654,-108.032 628.351,-116.965 632.678,-111.463"/>
</g>
<!-- [root] provider[&quot;registry.terraform.io/hashicorp/aws&quot;] (close)&#45;&gt;[root] aws_security_group.SG_Web (expand) -->
<g id="edge5" class="edge"><title>[root] provider[&quot;registry.terraform.io/hashicorp/aws&quot;] (close)&#45;&gt;[root] aws_security_group.SG_Web (expand)</title>
<path fill="none" stroke="black" d="M711.786,-144.055C723.309,-135.093 737.627,-123.957 750.166,-114.204"/>
<polygon fill="black" stroke="black" points="752.357,-116.934 758.102,-108.032 748.06,-111.408 752.357,-116.934"/>
</g>
<!-- [root] root -->
<g id="node16" class="node"><title>[root] root</title>
<ellipse fill="none" stroke="black" cx="1048" cy="-234" rx="47.169" ry="18"/>
<text text-anchor="middle" x="1048" y="-230.3" font-family="Times,serif" font-size="14.00">[root] root</text>
</g>
<!-- [root] root&#45;&gt;[root] output.instance_id -->
<g id="edge6" class="edge"><title>[root] root&#45;&gt;[root] output.instance_id</title>
<path fill="none" stroke="black" d="M1000.6,-233.459C865.212,-234.096 465.253,-231.278 126.339,-180.029"/>
<polygon fill="black" stroke="black" points="126.745,-176.551 116.33,-178.499 125.686,-183.47 126.745,-176.551"/>
</g>
<!-- [root] root&#45;&gt;[root] output.instance_public_ip -->
<g id="edge7" class="edge"><title>[root] root&#45;&gt;[root] output.instance_public_ip</title>
<path fill="none" stroke="black" d="M1001.04,-231.625C884.402,-227.792 572.033,-214.962 301.612,-179.977"/>
<polygon fill="black" stroke="black" points="301.975,-176.495 291.606,-178.67 301.068,-183.436 301.975,-176.495"/>
</g>
<!-- [root] root&#45;&gt;[root] output.security_group -->
<g id="edge8" class="edge"><title>[root] root&#45;&gt;[root] output.security_group</title>
<path fill="none" stroke="black" d="M1001.24,-230.862C902.338,-225.9 664.586,-211.649 456.246,-180.083"/>
<polygon fill="black" stroke="black" points="456.763,-176.621 446.348,-178.566 455.703,-183.54 456.763,-176.621"/>
</g>
<!-- [root] root&#45;&gt;[root] provider[&quot;registry.terraform.io/hashicorp/aws&quot;] (close) -->
<g id="edge9" class="edge"><title>[root] root&#45;&gt;[root] provider[&quot;registry.terraform.io/hashicorp/aws&quot;] (close)</title>
<path fill="none" stroke="black" d="M1006.93,-224.97C952.204,-214.269 853.827,-195.033 781.146,-180.822"/>
<polygon fill="black" stroke="black" points="781.554,-177.335 771.068,-178.851 780.21,-184.205 781.554,-177.335"/>
</g>
<!-- [root] root&#45;&gt;[root] var.Port -->
<g id="edge10" class="edge"><title>[root] root&#45;&gt;[root] var.Port</title>
<path fill="none" stroke="black" d="M1029.14,-217.465C1018.14,-208.412 1004.06,-196.811 991.71,-186.644"/>
<polygon fill="black" stroke="black" points="993.843,-183.866 983.899,-180.211 989.393,-189.27 993.843,-183.866"/>
</g>
<!-- [root] root&#45;&gt;[root] var.ami_id -->
<g id="edge11" class="edge"><title>[root] root&#45;&gt;[root] var.ami_id</title>
<path fill="none" stroke="black" d="M1048,-215.697C1048,-207.983 1048,-198.712 1048,-190.112"/>
<polygon fill="black" stroke="black" points="1051.5,-190.104 1048,-180.104 1044.5,-190.104 1051.5,-190.104"/>
</g>
<!-- [root] root&#45;&gt;[root] var.cidr_blocks -->
<g id="edge12" class="edge"><title>[root] root&#45;&gt;[root] var.cidr_blocks</title>
<path fill="none" stroke="black" d="M1070.53,-217.983C1084.56,-208.628 1102.89,-196.408 1118.7,-185.865"/>
<polygon fill="black" stroke="black" points="1120.81,-188.669 1127.19,-180.209 1116.92,-182.844 1120.81,-188.669"/>
</g>
<!-- [root] root&#45;&gt;[root] var.instance_count -->
<g id="edge13" class="edge"><title>[root] root&#45;&gt;[root] var.instance_count</title>
<path fill="none" stroke="black" d="M1083.84,-222.139C1118.29,-211.701 1171.17,-195.677 1213.2,-182.94"/>
<polygon fill="black" stroke="black" points="1214.25,-186.278 1222.81,-180.028 1212.22,-179.579 1214.25,-186.278"/>
</g>
<!-- [root] root&#45;&gt;[root] var.instance_tags -->
<g id="edge14" class="edge"><title>[root] root&#45;&gt;[root] var.instance_tags</title>
<path fill="none" stroke="black" d="M1091.16,-226.486C1147.39,-217.743 1248.93,-201.083 1345.66,-179.97"/>
<polygon fill="black" stroke="black" points="1346.6,-183.348 1355.61,-177.779 1345.09,-176.512 1346.6,-183.348"/>
</g>
<!-- [root] root&#45;&gt;[root] var.instance_type -->
<g id="edge15" class="edge"><title>[root] root&#45;&gt;[root] var.instance_type</title>
<path fill="none" stroke="black" d="M1093.6,-229.3C1171.74,-222.518 1336.09,-206.322 1473,-180 1473.1,-179.981 1473.2,-179.961 1473.3,-179.942"/>
<polygon fill="black" stroke="black" points="1473.72,-183.43 1482.79,-177.967 1472.29,-176.577 1473.72,-183.43"/>
</g>
<!-- [root] root&#45;&gt;[root] var.vpc_id -->
<g id="edge16" class="edge"><title>[root] root&#45;&gt;[root] var.vpc_id</title>
<path fill="none" stroke="black" d="M1095.35,-232.57C1190.22,-230.831 1410.17,-222.381 1601.64,-179.678"/>
<polygon fill="black" stroke="black" points="1602.62,-183.044 1611.6,-177.419 1601.07,-176.217 1602.62,-183.044"/>
</g>
</g>
</svg>
